<svg width="975" height="233" viewBox="0 0 975 233" fill="none" xmlns="http://www.w3.org/2000/svg">
<path d="M292.34 163.028C290.396 163.028 288.791 162.099 287.523 160.239C286.255 158.38 285.241 156.436 284.48 154.407C283.846 152.506 283.212 149.801 282.578 146.294C281.987 142.786 281.437 139.025 280.93 135.01C280.465 130.995 280.085 127.171 279.789 123.537C279.493 119.902 279.345 116.986 279.345 114.789C279.345 108.239 280.254 102.681 282.071 98.1173C283.888 93.511 286.382 89.8343 289.551 87.0875C292.509 84.5096 296.08 82.7135 300.264 81.6993C304.49 80.6851 309.054 80.178 313.956 80.178C317.929 80.178 321.859 80.5583 325.747 81.319C329.677 82.0796 332.91 83.1361 335.445 84.4885C338.023 85.8408 339.312 87.4255 339.312 89.2427C339.312 91.3134 338.108 92.6024 335.699 93.1095C333.966 93.3208 331.579 93.2997 328.536 93.0461C325.535 92.7503 322.197 92.6024 318.52 92.6024C314.548 92.6024 311.231 93.0461 308.568 93.9335C305.948 94.821 303.856 96.1099 302.293 97.8003C300.602 99.4485 299.398 101.646 298.679 104.393C297.961 107.14 297.665 110.394 297.792 114.155C297.834 115.592 298.151 117.155 298.743 118.846C299.377 120.536 300.475 121.318 302.039 121.191C306.349 120.853 310.491 120.6 314.463 120.431C318.436 120.219 321.563 120.219 323.845 120.431C325.535 120.684 326.824 121.064 327.712 121.572C328.642 122.079 329.106 122.86 329.106 123.917C329.106 125.185 328.599 126.305 327.585 127.277C326.444 128.418 323.761 129.136 319.535 129.432C315.309 129.685 308.97 130.467 300.518 131.777C299.208 131.946 298.299 132.453 297.792 133.299C297.285 134.144 297.031 135.264 297.031 136.658C297.031 137.461 297.095 138.856 297.221 140.842C297.39 142.828 297.559 145.026 297.728 147.435C297.94 149.801 298.088 152.02 298.172 154.091C298.299 156.119 298.299 157.598 298.172 158.528C297.707 160.26 296.947 161.444 295.89 162.078C294.876 162.712 293.693 163.028 292.34 163.028ZM368.297 164.36C363.987 164.36 360.543 163.472 357.965 161.697C355.387 159.965 353.443 157.091 352.133 153.076C350.865 149.019 350.02 143.526 349.597 136.595C349.301 134.397 349.09 131.608 348.963 128.227C348.879 124.804 348.837 121.212 348.837 117.451C348.837 113.69 348.858 110.161 348.9 106.865C348.984 103.569 349.09 100.949 349.217 99.0047C349.428 92.9616 350.062 88.4609 351.119 85.5027C352.217 82.5445 354.415 81.0654 357.711 81.0654C360.416 81.0654 362.275 81.8895 363.289 83.5376C364.346 85.1435 364.874 87.8481 364.874 91.6515C364.874 93.511 364.79 96.1099 364.621 99.4485C364.494 102.745 364.346 106.337 364.177 110.225C364.008 114.07 363.839 117.747 363.67 121.255C363.543 124.762 363.48 127.594 363.48 129.749C363.48 136.468 363.712 141.518 364.177 144.899C364.684 148.238 365.445 150.477 366.459 151.618C367.473 152.717 368.762 153.266 370.326 153.266C371.889 153.266 373.22 153.013 374.319 152.506C375.46 151.999 376.496 151.492 377.425 150.984C378.355 150.435 379.285 150.16 380.214 150.16C382.37 150.16 383.447 151.449 383.447 154.027C383.447 155.844 382.729 157.535 381.292 159.098C379.855 160.662 377.975 161.93 375.65 162.902C373.326 163.874 370.875 164.36 368.297 164.36ZM424.765 165.12C416.651 165.12 410.1 163.472 405.114 160.176C400.127 156.88 396.493 152.189 394.211 146.103C391.929 140.018 390.788 132.792 390.788 124.424C390.788 122.142 390.893 119.86 391.105 117.578C391.358 115.254 391.739 113.225 392.246 111.493C393.006 108.577 394.084 106.485 395.479 105.217C396.915 103.907 398.669 103.252 400.74 103.252C403.614 103.252 405.431 104.118 406.191 105.851C406.994 107.541 407.438 109.274 407.523 111.049C407.565 112.739 407.565 114.852 407.523 117.388C407.523 119.923 407.565 122.1 407.649 123.917C407.818 129.326 408.452 134.102 409.551 138.243C410.692 142.342 412.509 145.554 415.003 147.878C417.538 150.16 420.982 151.301 425.335 151.301C431.97 151.301 436.724 149.252 439.598 145.153C442.472 141.053 444.458 135.327 445.557 127.974C445.979 125.481 446.275 122.86 446.444 120.114C446.655 117.324 446.951 114.556 447.331 111.809C447.796 109.063 448.62 106.928 449.804 105.407C450.987 103.886 452.741 103.125 455.065 103.125C457.051 103.125 458.551 103.801 459.566 105.154C460.58 106.464 461.277 108.323 461.658 110.732C462.038 116.986 461.996 123.156 461.531 129.242C460.686 140.948 457.263 149.865 451.262 155.992C445.261 162.078 436.428 165.12 424.765 165.12ZM507.133 165.374C496.441 165.374 487.968 162.923 481.714 158.021C475.501 153.119 472.395 145.427 472.395 134.947C472.395 127.255 474.086 120.832 477.466 115.676C480.889 110.521 485.411 106.654 491.032 104.076C496.695 101.456 502.886 100.146 509.605 100.146C514.169 100.146 518.353 100.801 522.156 102.111C525.96 103.379 529.002 105.386 531.284 108.133C533.566 110.838 534.707 114.324 534.707 118.592C534.707 123.114 533.461 126.558 530.967 128.925C528.474 131.291 525.22 132.961 521.205 133.933C517.191 134.862 512.901 135.517 508.337 135.898C506.605 136.193 504.492 136.447 501.998 136.658C499.547 136.827 497.202 136.975 494.962 137.102C492.722 137.187 491.116 137.229 490.144 137.229C488.877 137.229 488.01 137.398 487.545 137.736C487.081 138.074 486.848 138.687 486.848 139.574C486.848 140.631 487.144 141.877 487.736 143.314C488.327 144.751 489.172 146.125 490.271 147.435C492.3 149.928 494.645 151.597 497.307 152.442C499.97 153.245 503.287 153.647 507.26 153.647C510.683 153.647 513.789 153.245 516.578 152.442C519.409 151.597 521.966 150.773 524.248 149.97C526.53 149.125 528.58 148.702 530.397 148.702C532.045 148.702 533.334 149.019 534.264 149.653C535.236 150.245 535.722 151.428 535.722 153.203C535.722 155.358 534.454 157.366 531.918 159.225C529.383 161.085 525.96 162.564 521.649 163.662C517.339 164.803 512.5 165.374 507.133 165.374ZM502.125 130.129C505.548 130.129 508.739 129.812 511.697 129.178C514.655 128.544 517.043 127.446 518.86 125.882C520.719 124.276 521.649 122.058 521.649 119.226C521.649 115.93 520.445 113.458 518.036 111.809C515.627 110.119 512.246 109.274 507.894 109.274C504.428 109.274 501.132 110.077 498.005 111.683C494.92 113.246 492.405 115.338 490.461 117.958C488.517 120.536 487.545 123.346 487.545 126.389C487.545 128.164 488.623 129.242 490.778 129.622C492.976 129.96 496.758 130.129 502.125 130.129ZM551.41 162.395C547.522 162.395 545.134 160.155 544.247 155.675C544.035 154.069 543.909 152.083 543.866 149.717C543.866 147.35 543.993 144.561 544.247 141.349C544.965 128.756 548.43 118.888 554.643 111.746C560.855 104.604 569.349 101.033 580.125 101.033C590.944 101.033 599.396 104.52 605.481 111.493C611.609 118.423 614.673 128.904 614.673 142.934C614.673 148.047 614.356 151.999 613.722 154.788C613.088 157.492 612.137 159.436 610.869 160.62C609.644 161.803 608.038 162.395 606.052 162.395C603.009 162.395 601.002 161.634 600.03 160.113C599.058 158.549 598.445 156.288 598.191 153.33C598.022 149.104 597.853 145.533 597.684 142.617C597.515 139.659 597.283 137.039 596.987 134.757C596.691 132.475 596.29 130.214 595.783 127.974C594.811 123.706 593.184 120.452 590.902 118.212C588.619 115.93 585.218 114.789 580.696 114.789C576.301 114.789 572.793 115.993 570.173 118.402C567.553 120.811 565.524 124.128 564.088 128.354C562.82 131.946 561.932 135.834 561.425 140.018C560.96 144.159 560.559 148.702 560.221 153.647C559.883 157.197 558.911 159.542 557.305 160.683C555.741 161.824 553.776 162.395 551.41 162.395ZM650.977 163.155C647.047 163.155 642.906 162.902 638.553 162.395C634.242 161.887 630.798 161.106 628.22 160.049C626.657 159.415 625.41 158.718 624.48 157.957C623.593 157.154 623.149 156.077 623.149 154.724C623.149 151.344 625.051 149.653 628.854 149.653C630.84 149.653 633.524 150.076 636.905 150.921C640.328 151.766 644.152 152.189 648.378 152.189C651.083 152.189 653.682 151.935 656.175 151.428C658.669 150.921 660.697 150.097 662.261 148.956C663.867 147.773 664.669 146.167 664.669 144.138C664.669 142.363 664.183 140.905 663.211 139.764C662.282 138.581 660.591 137.567 658.14 136.722C655.689 135.834 652.203 134.947 647.681 134.059C640.37 132.665 634.771 130.594 630.883 127.847C626.995 125.058 625.051 121.255 625.051 116.437C625.051 112.718 626.424 109.654 629.171 107.245C631.918 104.837 635.51 103.062 639.947 101.921C644.427 100.737 649.266 100.146 654.464 100.146C657.591 100.146 660.782 100.399 664.036 100.906C667.332 101.371 670.1 102.09 672.34 103.062C674.622 104.034 675.763 105.259 675.763 106.738C675.763 108.598 675.129 109.887 673.861 110.605C672.593 111.281 671.114 111.619 669.424 111.619C668.156 111.619 666.318 111.45 663.909 111.112C661.5 110.774 658.795 110.605 655.795 110.605C652.161 110.605 648.949 111.176 646.16 112.317C643.37 113.415 641.976 115.211 641.976 117.705C641.976 120.24 643.328 122.184 646.033 123.537C648.737 124.889 652.752 126.093 658.077 127.15C665.388 128.629 670.882 130.721 674.558 133.425C678.235 136.13 680.073 140.039 680.073 145.153C680.073 149.463 678.721 152.949 676.016 155.612C673.312 158.232 669.741 160.134 665.303 161.317C660.908 162.542 656.133 163.155 650.977 163.155ZM720.995 163.916C718.882 163.916 717.298 163.134 716.241 161.571C715.185 160.049 714.551 157.577 714.339 154.154C714.255 152.464 714.213 150.118 714.213 147.118C714.213 144.117 714.234 140.779 714.276 137.102C714.36 133.383 714.424 129.601 714.466 125.755C714.551 121.91 714.614 118.296 714.656 114.916C714.741 111.535 714.783 108.703 714.783 106.421C714.783 103.928 714.424 102.259 713.705 101.414C712.987 100.526 711.423 100.082 709.015 100.082C706.352 100.082 703.69 100.294 701.027 100.716C698.407 101.097 695.808 101.287 693.231 101.287C691.287 101.287 689.681 100.78 688.413 99.7654C687.187 98.7089 686.575 97.1876 686.575 95.2013C686.575 93.2997 687.758 91.6938 690.124 90.3837C692.491 89.0737 695.724 88.0383 699.823 87.2776C703.965 86.4747 708.698 85.9042 714.022 85.5661C719.347 85.228 724.968 85.059 730.884 85.059C734.73 85.059 738.491 85.1646 742.167 85.3759C745.844 85.5872 749.161 86.0098 752.12 86.6437C755.12 87.2354 757.487 88.1439 759.219 89.3695C760.994 90.5528 761.882 92.1375 761.882 94.1237C761.882 98.5187 759.283 100.716 754.085 100.716C751.845 100.716 749.943 100.653 748.38 100.526C746.858 100.357 745.041 100.273 742.928 100.273C739.759 100.273 737.456 100.526 736.019 101.033C734.624 101.498 733.716 102.428 733.293 103.822C732.913 105.175 732.68 107.224 732.596 109.971C732.511 113.098 732.342 116.648 732.089 120.621C731.877 124.593 731.603 128.65 731.264 132.792C730.969 136.933 730.631 140.884 730.25 144.645C729.912 148.364 729.574 151.576 729.236 154.281C728.475 157.873 727.567 160.366 726.51 161.761C725.496 163.198 723.658 163.916 720.995 163.916ZM783.771 162.648C782.25 162.648 780.876 162.12 779.651 161.063C778.467 160.049 777.39 158.676 776.418 156.943C775.361 154.788 774.453 152.231 773.692 149.273C772.931 146.272 772.361 143.23 771.981 140.145C771.6 137.018 771.41 134.144 771.41 131.524C771.41 121.17 774.263 113.225 779.968 107.689C785.673 102.153 793.66 99.3851 803.929 99.3851C807.775 99.3851 811.367 99.7654 814.705 100.526C818.086 101.287 820.812 102.386 822.883 103.822C824.953 105.259 825.989 107.013 825.989 109.084C825.989 111.07 825.397 112.443 824.214 113.204C823.073 113.965 821.784 114.345 820.347 114.345C818.403 114.345 816.269 114.028 813.945 113.394C811.663 112.718 808.683 112.38 805.007 112.38C799.428 112.38 795.266 114.092 792.519 117.515C789.772 120.938 788.398 125.586 788.398 131.46C788.398 134.926 788.652 138.243 789.159 141.413C789.666 144.54 790.152 147.308 790.617 149.717C791.124 152.083 791.378 153.9 791.378 155.168C791.378 157.831 790.765 159.753 789.54 160.937C788.314 162.078 786.391 162.648 783.771 162.648ZM867.415 165.374C856.723 165.374 848.25 162.923 841.996 158.021C835.783 153.119 832.677 145.427 832.677 134.947C832.677 127.255 834.368 120.832 837.748 115.676C841.171 110.521 845.693 106.654 851.314 104.076C856.977 101.456 863.168 100.146 869.887 100.146C874.451 100.146 878.635 100.801 882.438 102.111C886.242 103.379 889.284 105.386 891.566 108.133C893.848 110.838 894.989 114.324 894.989 118.592C894.989 123.114 893.743 126.558 891.249 128.925C888.756 131.291 885.502 132.961 881.487 133.933C877.473 134.862 873.183 135.517 868.619 135.898C866.887 136.193 864.774 136.447 862.28 136.658C859.829 136.827 857.484 136.975 855.244 137.102C853.004 137.187 851.398 137.229 850.426 137.229C849.159 137.229 848.292 137.398 847.827 137.736C847.363 138.074 847.13 138.687 847.13 139.574C847.13 140.631 847.426 141.877 848.018 143.314C848.609 144.751 849.454 146.125 850.553 147.435C852.582 149.928 854.927 151.597 857.589 152.442C860.252 153.245 863.569 153.647 867.542 153.647C870.965 153.647 874.071 153.245 876.86 152.442C879.691 151.597 882.248 150.773 884.53 149.97C886.812 149.125 888.862 148.702 890.679 148.702C892.327 148.702 893.616 149.019 894.546 149.653C895.518 150.245 896.004 151.428 896.004 153.203C896.004 155.358 894.736 157.366 892.2 159.225C889.665 161.085 886.242 162.564 881.931 163.662C877.621 164.803 872.782 165.374 867.415 165.374ZM862.407 130.129C865.83 130.129 869.021 129.812 871.979 129.178C874.937 128.544 877.325 127.446 879.142 125.882C881.001 124.276 881.931 122.058 881.931 119.226C881.931 115.93 880.727 113.458 878.318 111.809C875.909 110.119 872.528 109.274 868.176 109.274C864.71 109.274 861.414 110.077 858.287 111.683C855.202 113.246 852.687 115.338 850.743 117.958C848.799 120.536 847.827 123.346 847.827 126.389C847.827 128.164 848.905 129.242 851.06 129.622C853.258 129.96 857.04 130.129 862.407 130.129ZM940.09 165.374C929.399 165.374 920.926 162.923 914.671 158.021C908.459 153.119 905.353 145.427 905.353 134.947C905.353 127.255 907.043 120.832 910.424 115.676C913.847 110.521 918.369 106.654 923.989 104.076C929.652 101.456 935.843 100.146 942.563 100.146C947.127 100.146 951.31 100.801 955.114 102.111C958.917 103.379 961.96 105.386 964.242 108.133C966.524 110.838 967.665 114.324 967.665 118.592C967.665 123.114 966.418 126.558 963.925 128.925C961.432 131.291 958.178 132.961 954.163 133.933C950.148 134.862 945.859 135.517 941.295 135.898C939.562 136.193 937.449 136.447 934.956 136.658C932.505 136.827 930.159 136.975 927.92 137.102C925.68 137.187 924.074 137.229 923.102 137.229C921.834 137.229 920.968 137.398 920.503 137.736C920.038 138.074 919.806 138.687 919.806 139.574C919.806 140.631 920.101 141.877 920.693 143.314C921.285 144.751 922.13 146.125 923.229 147.435C925.257 149.928 927.603 151.597 930.265 152.442C932.927 153.245 936.245 153.647 940.217 153.647C943.64 153.647 946.746 153.245 949.535 152.442C952.367 151.597 954.924 150.773 957.206 149.97C959.488 149.125 961.537 148.702 963.354 148.702C965.003 148.702 966.291 149.019 967.221 149.653C968.193 150.245 968.679 151.428 968.679 153.203C968.679 155.358 967.411 157.366 964.876 159.225C962.34 161.085 958.917 162.564 954.607 163.662C950.296 164.803 945.457 165.374 940.09 165.374ZM935.083 130.129C938.506 130.129 941.696 129.812 944.654 129.178C947.613 128.544 950 127.446 951.817 125.882C953.677 124.276 954.607 122.058 954.607 119.226C954.607 115.93 953.402 113.458 950.993 111.809C948.585 110.119 945.204 109.274 940.851 109.274C937.386 109.274 934.089 110.077 930.962 111.683C927.877 113.246 925.363 115.338 923.419 117.958C921.475 120.536 920.503 123.346 920.503 126.389C920.503 128.164 921.581 129.242 923.736 129.622C925.933 129.96 929.716 130.129 935.083 130.129Z" fill="white"/>
<path d="M35.1249 83.917C31.5929 36.0775 66.759 -1.20883 113.771 0.0302508C128.992 0.431435 142.722 5.5979 155.239 14.2539C160.703 18.0321 166.426 21.4505 172.142 24.8457C184.006 31.893 195.199 30.4007 206.132 22.374C216.685 14.6258 228.51 12.2717 241.199 15.9472C256.435 20.3604 266.172 30.491 269.676 45.8486C273.236 61.455 268.377 74.7746 256.563 85.5176C254.722 87.1922 252.653 88.6365 250.596 90.0517C241.703 96.1701 238.274 104.686 239.863 115.172C240.834 121.579 241.909 128.026 243.668 134.249C252.311 164.826 242.725 195.993 218.363 215.645C194.624 234.795 161.871 237.54 134.266 223.07C127.953 219.762 121.174 217.199 114.387 214.977C106.248 212.312 97.9549 212.539 89.9365 215.947C86.1039 217.576 82.3112 219.3 78.1777 221.126C53.7035 233.131 26.0051 226.546 10.4677 205.251C-4.98787 184.068 -3.51871 154.609 16.1464 136.446C32.1349 121.68 36.6486 104.554 35.1249 83.917Z" fill="#6852BF"/>
<path d="M167.638 39.4751C180.975 39.4753 191.786 50.2868 191.786 63.6235C191.786 76.9604 180.975 87.7727 167.638 87.7729C163.174 87.7729 158.993 86.5608 155.405 84.4483C152.837 82.9359 150.022 81.7358 147.042 81.7358H144.871C139.314 81.7358 134.809 86.2408 134.809 91.7979V92.8229C134.809 97.8139 138.855 101.86 143.846 101.86V101.86C145.804 101.86 147.677 101.164 149.401 100.235C152.24 98.7035 155.488 97.8345 158.94 97.8345C170.054 97.8346 179.064 106.845 179.064 117.958C179.064 129.073 170.054 138.082 158.94 138.083C155.489 138.083 152.241 137.214 149.403 135.683C147.679 134.754 145.806 134.058 143.848 134.058V134.058C138.856 134.058 134.809 138.105 134.809 143.097V180.343C134.809 191.457 125.799 200.467 114.685 200.467C103.571 200.467 94.5608 191.457 94.5608 180.343V149.202C94.5608 138.616 86.2551 128.545 86.2551 117.958V117.958C86.2552 116.536 86.4396 115.157 86.786 113.843C88.8306 106.089 94.5608 98.893 94.5608 90.8734V90.8734C94.5608 83.3799 89.7222 76.6581 87.2579 69.5814C86.6083 67.7159 86.2552 65.7114 86.2551 63.6245C86.2551 61.221 86.7233 58.9268 87.5734 56.8281C91.695 46.6536 103.707 39.4751 114.685 39.4751V39.4751C116.082 39.4751 117.446 39.6176 118.763 39.8889C126.218 41.4242 133.343 45.5122 140.954 45.5122V45.5122C147.858 45.5122 154.347 42.3032 160.985 40.4038C163.098 39.799 165.33 39.4751 167.638 39.4751Z" fill="white"/>
</svg>
